<?xml version="1.0" encoding="iso-8859-1"?>
<!-- Generator: Adobe Illustrator 19.0.0, SVG Export Plug-In . SVG Version: 6.00 Build 0)  -->
<svg version="1.1" id="Layer_1" xmlns="http://www.w3.org/2000/svg" xmlns:xlink="http://www.w3.org/1999/xlink" x="0px" y="0px"
	 viewBox="0 0 438.645 438.645" style="enable-background:new 0 0 438.645 438.645;" xml:space="preserve">
<g>
	<path style="fill:#F7B239;" d="M59.055,192.335c10.425,0,18.868,8.444,18.868,18.869s-8.443,18.868-18.868,18.868
		c-10.413,0-18.868-8.443-18.868-18.868S48.642,192.335,59.055,192.335"/>
	<path style="fill:#F7B239;" d="M379.58,192.335c10.425,0,18.868,8.444,18.868,18.868s-8.444,18.868-18.868,18.868
		c-10.413,0-18.868-8.444-18.868-18.868S369.167,192.335,379.58,192.335z"/>
	<polyline style="fill:#F7B239;" points="386.656,315.38 386.656,347.904 355.83,347.904 319.414,347.904 119.233,347.904 
		82.806,347.904 51.98,347.904 51.98,315.38 112.122,315.38 326.525,315.38 386.656,315.38 	"/>
	<path style="fill:#C67934;" d="M361.903,84.114v76.865c-20.614,7.276-35.378,26.934-35.378,50.036v61.605
		c0-15.46-12.536-27.996-28.008-27.996H140.118c-15.46,0-27.996,12.536-27.996,27.996v-61.605c0-23.102-14.765-42.76-35.378-50.036
		V84.114c0-19.788,16.038-35.826,35.826-35.826h213.507C345.865,48.287,361.903,64.326,361.903,84.114"/>
	<path style="fill:#A5A5A5;" d="M140.872,48.287H112.57c-19.788,0-35.826,16.038-35.826,35.826l0,0
		c0-19.788,16.038-35.826,35.826-35.826H140.872L140.872,48.287"/>
	<path style="fill:#855A34;" d="M140.872,48.287H112.57c-19.788,0-35.826,16.038-35.826,35.826v76.865l0,0
		c15.395,5.434,27.527,17.773,32.683,33.296c-2-51.924-4.381-110.161-4.381-110.161C105.047,64.326,121.084,48.287,140.872,48.287"
		/>
	<path style="fill:#A17A36;" d="M72.626,198.092c-0.959,9.439-1.898,19.453-2.581,28.453c4.771-3.423,7.878-9.018,7.878-15.341
		C77.923,206.107,75.906,201.486,72.626,198.092"/>
	<path style="fill:#C67934;" d="M432.647,211.015c0,26.911-20.024,49.128-45.991,52.583v51.782h-60.131v-42.76v-61.605
		c0-23.102,14.764-42.76,35.378-50.036c5.531-1.958,11.474-3.019,17.677-3.019C408.897,157.959,432.647,181.71,432.647,211.015z
		 M398.448,211.202c0-10.425-8.444-18.868-18.868-18.868c-10.413,0-18.868,8.444-18.868,18.868s8.455,18.868,18.868,18.868
		C390.005,230.072,398.448,221.628,398.448,211.202z"/>
	<path style="fill:#C67934;" d="M112.122,272.618v42.76H51.98v-51.781C26.024,260.143,6,237.926,6,211.015
		c0-29.305,23.751-53.055,53.055-53.055c6.203,0,12.158,1.061,17.689,3.019c20.613,7.276,35.378,26.934,35.378,50.036V272.618
		 M77.923,211.202c0-10.425-8.443-18.869-18.868-18.869c-10.413,0-18.868,8.444-18.868,18.869s8.455,18.868,18.868,18.868
		C69.48,230.072,77.923,221.628,77.923,211.202"/>
	<path style="fill:#C67934;" d="M326.525,272.618v42.76H112.122v-42.76c0-15.46,12.535-27.996,27.996-27.996h158.399
		C313.989,244.624,326.525,257.159,326.525,272.618"/>
	<path style="fill:#855A34;" d="M166.062,244.624h-25.944c-15.46,0-27.996,12.536-27.996,27.996v42.76h25.944v-42.76
		C138.066,257.159,150.601,244.624,166.062,244.624"/>
	<polyline style="fill:#F7B239;" points="365.859,347.904 361.366,372.669 358.147,390.358 329.443,390.358 329.443,347.904 
		365.859,347.904 	"/>
	<polyline style="fill:#F7B239;" points="109.215,347.904 109.215,390.358 80.512,390.358 77.292,372.669 72.788,347.904 
		109.215,347.904 	"/>
	<polyline style="fill:#A17A36;" points="109.215,347.904 72.788,347.904 77.292,372.669 109.215,372.669 109.215,347.904 	"/>
	<polyline style="fill:#A17A36;" points="365.859,347.904 329.443,347.904 329.443,372.669 361.366,372.669 365.859,347.904 	"/>
	<path style="fill:#333333;" d="M379.58,151.959c-3.951,0-7.855,0.399-11.677,1.167V84.114c0-23.063-18.763-41.826-41.826-41.826
		H112.57c-23.063,0-41.826,18.763-41.826,41.826v69.012c-3.826-0.768-7.733-1.167-11.689-1.167C26.492,151.959,0,178.451,0,211.015
		c0,27.702,19.427,51.589,45.979,57.597v46.768v32.524c0,3.313,2.686,6,6,6H67.78l6.828,37.528c0.519,2.853,3.004,4.926,5.903,4.926
		h28.703c3.313,0,6-2.687,6-6v-36.454h208.228v36.454c0,3.313,2.687,6,6,6h28.704c2.9,0,5.385-2.074,5.903-4.928l6.817-37.526
		h15.788c3.313,0,6-2.687,6-6v-32.525v-46.767c26.559-6.007,45.991-29.896,45.991-57.598
		C438.647,178.451,412.15,151.959,379.58,151.959z M82.744,84.114c0-16.446,13.38-29.826,29.826-29.826h213.506
		c16.446,0,29.826,13.38,29.826,29.826v72.793c-21.326,9.33-35.378,30.556-35.378,54.109v35.718
		c-5.936-5.051-13.62-8.109-22.008-8.109H140.118c-8.383,0-16.062,3.056-21.996,8.105v-35.714c0-23.554-14.054-44.781-35.378-54.109
		C82.744,156.906,82.744,84.114,82.744,84.114z M320.525,272.618v36.76H118.122v-36.76c0-12.128,9.867-21.996,21.996-21.996h158.399
		C310.652,250.624,320.525,260.491,320.525,272.618z M52.771,257.65C29.528,254.556,12,234.507,12,211.015
		c0-25.947,21.109-47.056,47.055-47.056c5.394,0,10.671,0.9,15.692,2.677c18.766,6.625,31.375,24.459,31.375,44.379v98.365H57.979
		v-45.781C57.979,260.59,55.752,258.047,52.771,257.65z M103.215,384.358H85.519l-5.541-30.454h23.237V384.358z M353.139,384.358
		h-17.695v-30.454h23.228L353.139,384.358z M380.656,341.904H57.979v-20.525h322.676v20.525H380.656z M385.864,257.65
		c-2.981,0.397-5.208,2.94-5.208,5.948v45.781h-48.131v-98.365c0-19.92,12.609-37.754,31.38-44.38
		c5.016-1.775,10.29-2.675,15.675-2.675c25.953,0,47.067,21.109,47.067,47.056C426.647,234.507,409.114,254.557,385.864,257.65z"/>
	<path style="fill:#FFFFFF;" d="M300.51,81.411H182.206c-3.313,0-6-2.686-6-6s2.687-6,6-6H300.51c3.313,0,6,2.686,6,6
		S303.824,81.411,300.51,81.411z"/>
	<path style="fill:#FFFFFF;" d="M278.104,274.927h-0.011l-64.136-0.118c-3.313-0.006-5.995-2.697-5.989-6.011
		c0.006-3.31,2.691-5.989,6-5.989h0.012l64.136,0.118c3.313,0.006,5.995,2.697,5.989,6.011
		C284.098,272.249,281.413,274.927,278.104,274.927z"/>
	<path style="fill:#FFFFFF;" d="M302.867,274.811c-0.39,0-0.78-0.04-1.17-0.12c-0.38-0.07-0.76-0.19-1.12-0.34s-0.71-0.34-1.04-0.55
		c-0.33-0.22-0.63-0.47-0.91-0.75c-1.12-1.12-1.76-2.66-1.76-4.24s0.64-3.13,1.76-4.24c0.28-0.28,0.58-0.53,0.91-0.75
		c0.33-0.22,0.68-0.4,1.04-0.55c0.36-0.15,0.74-0.27,1.12-0.34c1.95-0.4,4.02,0.24,5.42,1.64c1.11,1.11,1.75,2.66,1.75,4.24
		s-0.64,3.12-1.75,4.24C305.997,274.171,304.446,274.811,302.867,274.811z"/>
	<path style="fill:#FFFFFF;" d="M325.347,81.411c-0.39,0-0.79-0.04-1.17-0.12c-0.39-0.08-0.76-0.19-1.13-0.34
		c-0.36-0.15-0.71-0.34-1.03-0.55c-0.33-0.22-0.64-0.47-0.91-0.75c-1.12-1.11-1.76-2.66-1.76-4.24c0-0.39,0.04-0.79,0.12-1.17
		c0.07-0.39,0.19-0.76,0.34-1.13c0.15-0.36,0.33-0.71,0.55-1.03c0.22-0.33,0.47-0.64,0.75-0.91c0.27-0.28,0.58-0.53,0.91-0.75
		c0.32-0.21,0.67-0.4,1.03-0.55c0.37-0.15,0.74-0.27,1.13-0.34c0.77-0.16,1.57-0.16,2.34,0c0.38,0.07,0.76,0.19,1.12,0.34
		c0.37,0.15,0.71,0.34,1.04,0.55c0.33,0.22,0.63,0.47,0.91,0.75c0.28,0.27,0.53,0.58,0.75,0.91c0.21,0.32,0.4,0.67,0.55,1.03
		c0.15,0.37,0.26,0.74,0.34,1.13c0.08,0.38,0.12,0.78,0.12,1.17c0,1.58-0.64,3.13-1.76,4.24c-0.28,0.28-0.58,0.53-0.91,0.75
		c-0.33,0.21-0.67,0.4-1.04,0.55c-0.36,0.15-0.74,0.26-1.12,0.34C326.126,81.371,325.736,81.411,325.347,81.411z"/>
	<path style="fill:#333333;" d="M166.958,174.573c-3.313,0-6-2.687-6-6v-38.916c0-3.313,2.687-6,6-6s6,2.687,6,6v38.916
		C172.958,171.885,170.271,174.573,166.958,174.573z"/>
	<path style="fill:#333333;" d="M186.416,155.115H147.5c-3.313,0-6-2.687-6-6s2.687-6,6-6h38.916c3.313,0,6,2.687,6,6
		S189.729,155.115,186.416,155.115z"/>
	<path style="fill:#333333;" d="M271.689,174.573c-3.313,0-6-2.687-6-6v-38.916c0-3.313,2.687-6,6-6s6,2.687,6,6v38.916
		C277.689,171.885,275.002,174.573,271.689,174.573z"/>
	<path style="fill:#333333;" d="M291.147,155.115h-38.916c-3.313,0-6-2.687-6-6s2.687-6,6-6h38.916c3.313,0,6,2.687,6,6
		S294.46,155.115,291.147,155.115z"/>
	<path style="fill:#333333;" d="M59.055,236.071c-13.712,0-24.868-11.156-24.868-24.868s11.156-24.868,24.868-24.868
		s24.868,11.156,24.868,24.868S72.768,236.071,59.055,236.071z M59.055,198.335c-7.096,0-12.868,5.772-12.868,12.868
		s5.772,12.868,12.868,12.868s12.868-5.772,12.868-12.868S66.151,198.335,59.055,198.335z"/>
	<path style="fill:#333333;" d="M379.58,236.071c-13.712,0-24.868-11.156-24.868-24.868s11.156-24.868,24.868-24.868
		s24.868,11.156,24.868,24.868S393.292,236.071,379.58,236.071z M379.58,198.335c-7.096,0-12.868,5.772-12.868,12.868
		s5.772,12.868,12.868,12.868s12.868-5.772,12.868-12.868S386.676,198.335,379.58,198.335z"/>
</g>
<g>
</g>
<g>
</g>
<g>
</g>
<g>
</g>
<g>
</g>
<g>
</g>
<g>
</g>
<g>
</g>
<g>
</g>
<g>
</g>
<g>
</g>
<g>
</g>
<g>
</g>
<g>
</g>
<g>
</g>
</svg>
